<svg width="196" height="81" viewBox="0 0 196 81" fill="none" xmlns="http://www.w3.org/2000/svg">
<path d="M128.795 40.8178C127.951 40.8178 127.172 40.8178 126.328 40.8178C124.834 40.8178 124.055 40.1291 124.055 38.9395C124.055 37.7499 124.899 37.1238 126.392 37.1238H130.354C132.821 37.0612 133.731 36.0595 133.86 33.6803C134.055 29.6107 132.497 28.9219 129.12 29.1098C128.081 29.1724 126.977 29.1098 125.938 29.1098C125.029 29.1098 124.185 28.4837 124.12 27.5445C123.925 26.6054 124.444 25.541 125.418 25.4784C128.471 25.228 131.588 24.7271 134.51 26.2923C136.198 27.1689 137.367 28.7341 137.692 30.5498C138.017 32.2403 138.017 34.056 137.692 35.7464C137.042 38.6891 134.315 40.8178 131.198 40.8178C130.354 40.8178 129.574 40.8178 128.795 40.8178Z" fill="#FFEDED"/>
<path d="M149.446 25.2906C150.485 25.2906 151.005 25.9167 151.394 26.7306C154.836 33.6803 158.278 40.5674 161.72 47.5171C161.979 48.018 162.239 48.4562 162.434 48.9571C162.954 50.0841 162.629 51.1484 161.655 51.6493C160.681 52.1502 159.512 51.7745 158.927 50.585C157.758 48.2684 156.59 45.8892 155.421 43.5726C152.888 38.5012 150.355 33.4298 147.888 28.421C147.108 26.7932 147.823 25.2906 149.446 25.2906Z" fill="#FFEDED"/>
<path d="M144.316 38.5639V49.771C144.381 50.8354 143.601 51.712 142.497 51.8372C142.432 51.8372 142.432 51.8372 142.368 51.8372C141.328 51.8372 140.484 51.0859 140.419 49.9589C140.354 49.6458 140.419 49.3328 140.354 48.9571V44.4492C140.354 39.0021 140.354 33.5551 140.354 28.108C140.354 27.7324 140.354 27.3567 140.419 26.9184C140.484 25.9167 141.393 25.1653 142.432 25.228C143.471 25.228 144.316 26.0419 144.251 27.0436V35.9969C144.251 36.8734 144.251 37.7499 144.316 38.5639Z" fill="#FFEDED"/>
<path d="M71.3243 38.5638V49.771C71.3243 51.3989 69.8307 52.338 68.467 51.6493C67.9475 51.3989 67.5579 50.9606 67.4929 50.4597C67.428 50.0841 67.363 49.771 67.363 49.3954C67.363 42.1952 67.363 34.9325 67.363 27.7323C67.363 27.0436 67.428 26.3549 68.0124 25.854C68.532 25.3532 69.3112 25.1653 70.0255 25.4784C70.8048 25.7288 71.3243 26.4801 71.2594 27.2941V34.8699C71.3243 36.0595 71.3243 37.3117 71.3243 38.5638Z" fill="#FFEDED"/>
<path d="M45.4134 55.1555C44.5043 55.5938 43.3354 55.2807 42.8159 54.3416C42.8159 54.3416 42.8159 54.279 42.7509 54.2163C41.9717 52.7763 41.3223 51.6493 39.0494 51.6493C35.6076 51.712 32.9451 48.6441 32.9451 45.451C32.8802 44.3866 33.7244 43.4474 34.8284 43.3848H34.8933C35.9973 43.3848 36.8415 44.1988 36.9064 45.2631C37.1012 47.0162 38.2052 48.0806 39.7637 48.0806C41.3223 48.0806 42.4262 47.0162 42.686 45.2631C42.8159 44.0735 43.725 43.3222 44.829 43.3848C45.933 43.51 46.7772 44.4492 46.6473 45.5136V45.5762C46.6473 46.891 46.1278 48.1432 45.3485 49.1449C44.9589 49.5206 44.8939 50.1467 45.2836 50.585C45.6732 51.2111 46.0628 51.8998 46.3875 52.5259C46.907 53.4024 46.5823 54.592 45.6732 55.0929C45.5433 55.0929 45.4784 55.0929 45.4134 55.1555Z" fill="#FFEDED"/>
<path d="M93.2087 43.5727C92.1047 43.5727 91.2605 42.7587 91.2605 41.6944C91.2605 41.4439 91.3254 41.1935 91.3904 40.943C91.4553 40.7552 91.5852 40.5674 91.7151 40.3796L102.105 26.1671C102.56 25.4158 103.469 25.0401 104.313 25.2906C105.742 25.6662 106.197 27.1063 105.287 28.4211C103.664 30.675 102.04 32.929 100.352 35.1203C98.5986 37.5621 96.7803 40.0039 95.027 42.4457C94.6373 43.1344 93.988 43.5101 93.2087 43.5727Z" fill="#FFEDED"/>
<path d="M107.106 45.5136C107.041 44.324 107.755 43.4475 108.859 43.3222C109.963 43.197 110.807 44.0109 111.002 45.2005C111.262 46.9536 112.366 48.018 113.924 48.018C115.483 48.018 116.522 46.9536 116.782 45.3258C116.911 44.0736 117.821 43.2596 118.925 43.3848C120.029 43.5101 120.808 44.3866 120.678 45.7014C120.418 49.145 117.431 51.8372 113.859 51.8998C110.288 51.8372 107.3 49.0823 107.106 45.5136Z" fill="#FFEDED"/>
<path d="M56.9075 51.8372C53.2709 51.8372 50.2837 49.0197 50.0889 45.5136C49.959 44.4492 50.7383 43.4475 51.8422 43.3222C52.9462 43.197 53.7904 44.0109 53.9852 45.2005C54.18 46.8284 55.1541 47.8301 56.5828 47.9554C57.9465 48.1432 59.1803 47.3293 59.6349 46.0771C59.6999 45.8266 59.7648 45.5136 59.7648 45.2631C59.8947 44.0109 60.8038 43.197 61.9078 43.3222C63.0767 43.4475 63.791 44.3866 63.7261 45.6388C63.5313 49.145 60.5441 51.8372 56.9075 51.8372Z" fill="#FFEDED"/>
<path d="M88.5979 45.5762C88.533 49.0197 85.3509 51.9624 81.7144 51.8998C78.0778 51.7746 75.1555 48.9571 75.0256 45.451C74.9607 44.3866 75.7399 43.5101 76.779 43.3848C77.818 43.3222 78.7921 44.0736 78.857 45.0753V45.1379C78.9869 46.3901 79.5064 47.3919 80.8052 47.8928C82.2988 48.3936 83.9223 47.7049 84.4418 46.3275C84.5067 46.1397 84.5717 46.0145 84.5717 45.8266C84.6366 45.6388 84.6366 45.451 84.6366 45.3257C84.8314 44.0736 85.6756 43.3848 86.7796 43.4475C87.8836 43.4475 88.5979 44.324 88.5979 45.5762Z" fill="#FFEDED"/>
<path d="M39.7639 25.2906C43.3355 25.228 46.3876 27.9828 46.5825 31.4263C46.7123 32.6785 45.998 33.6177 44.8291 33.7429C43.6602 33.8681 42.816 33.1168 42.6861 31.8646C42.4913 30.2368 41.3224 29.1724 39.8288 29.1098C38.3352 29.0472 37.1013 30.1741 36.9065 31.8646C36.7767 33.0542 35.9324 33.8055 34.7635 33.7429C33.5946 33.6803 32.8803 32.7412 32.9452 31.489C33.1401 28.0454 36.1273 25.2906 39.7639 25.2906Z" fill="#FFEDED"/>
<path d="M114.054 25.2906C117.561 25.3532 120.418 27.9828 120.743 31.3637C120.808 32.6159 120.094 33.5551 118.99 33.6803C117.756 33.8055 116.911 33.0542 116.782 31.7394C116.587 30.1741 115.483 29.1098 113.989 29.0472C112.496 28.9845 111.262 30.0489 111.067 31.6768C110.872 33.1168 110.093 33.8055 108.859 33.6803C107.69 33.5551 106.976 32.6159 107.171 31.1759C107.495 27.795 110.483 25.1653 114.054 25.2906Z" fill="#FFEDED"/>
<path d="M162.564 46.6405C161.395 44.2614 160.161 41.8822 158.992 39.4404C158.862 39.19 158.862 38.8769 158.862 38.6265C158.862 34.8699 158.862 31.0507 158.862 27.2941C158.797 26.4175 159.317 25.6662 160.161 25.3532C160.94 25.0401 161.849 25.2906 162.369 25.9793C162.694 26.3549 162.823 26.7932 162.823 27.2941V46.5779L162.564 46.6405Z" fill="#FFEDED"/>
<path d="M88.5981 31.6142C88.5981 32.8038 87.9487 33.6177 86.9097 33.7429C85.8707 33.8681 84.8966 33.242 84.7667 32.2403C84.7667 32.1151 84.7667 31.9898 84.7667 31.8646C84.7018 30.2994 83.3381 29.1098 81.7146 29.1098C81.4548 29.1098 81.26 29.1724 81.0652 29.235C79.9612 29.5481 79.182 30.4246 79.0521 31.5516C79.0521 32.1151 78.8573 32.6786 78.4676 33.1168C77.7533 33.8681 76.5195 33.9934 75.7402 33.3047C75.2856 32.929 75.0908 32.4281 75.0908 31.8646C74.896 27.2941 80.2859 23.9132 84.6368 25.8541C86.9747 26.7932 88.5332 29.0472 88.5981 31.6142Z" fill="#FFEDED"/>
<path d="M147.692 30.5498C148.861 32.929 150.095 35.3081 151.264 37.7499C151.394 38.0004 151.394 38.3134 151.394 38.5639V49.771C151.394 51.0232 150.615 51.8372 149.511 51.8372C148.407 51.8998 147.498 51.0232 147.498 49.771C147.498 43.3848 147.498 36.9986 147.498 30.5498H147.692Z" fill="#FFEDED"/>
<path d="M53.9856 42.8839C52.6868 42.1952 51.4529 42.1326 50.349 42.8213C50.0243 42.6335 50.0892 42.3831 50.0892 42.1326C50.0892 37.249 50.0892 32.3655 50.0892 27.4819C50.0892 26.6054 50.349 25.854 51.2581 25.4784C51.9075 25.1653 52.6868 25.2279 53.2712 25.6662C53.7907 25.9793 54.0505 26.5427 54.0505 27.1062C53.9856 32.3029 53.9856 37.4995 53.9856 42.8839Z" fill="#FFEDED"/>
<path d="M63.7264 42.8839C62.5575 42.07 60.934 42.07 59.8301 42.9466V35.496C59.8301 32.8664 59.8301 30.2367 59.8301 27.6071C59.8301 26.1671 60.6093 25.2906 61.8432 25.2906C63.077 25.2906 63.7913 26.1671 63.7913 27.6697V42.1952C63.7264 42.3831 63.7264 42.5709 63.7264 42.8839Z" fill="#FFEDED"/>
<path d="M99.9624 37.6247C101.911 41.5066 103.729 45.2631 105.547 48.9571C106.132 50.0841 105.677 51.2111 104.638 51.6494C103.534 52.0876 102.56 51.6494 101.976 50.585C100.482 47.6423 99.0532 44.6997 97.6246 41.6944C97.4298 41.4439 97.4298 41.0683 97.6246 40.8178C98.4038 39.8161 99.1182 38.8143 99.9624 37.6247Z" fill="#FFEDED"/>
<path d="M115.743 44.4492L108.794 34.8699C110.223 34.8699 111.521 34.0559 112.041 32.7411L118.925 42.1952C117.496 42.2578 116.262 43.1344 115.743 44.4492Z" fill="#FFEDED"/>
<path d="M91.2605 38.8143C91.2605 35.9342 91.2605 32.9916 91.2605 30.1115C91.2605 29.1098 91.2605 28.108 91.2605 27.1062C91.3255 26.0419 92.2346 25.228 93.2736 25.2906C94.3126 25.3532 95.0919 26.1045 95.1569 27.0436C95.2218 29.1098 95.1569 31.2385 95.1569 33.3046C95.1569 33.5551 95.0919 33.8055 94.8971 33.9933C93.7282 35.5586 92.5593 37.1864 91.3904 38.7517L91.2605 38.8143Z" fill="#FFEDED"/>
<path d="M124.055 41.3187C125.353 42.1326 126.652 41.8196 128.016 42.0074V49.771C128.016 51.0858 127.172 51.8998 126.003 51.8998C124.899 51.8998 124.055 51.0232 124.055 49.771C124.055 46.9536 124.055 44.2614 124.055 41.3187Z" fill="#FFEDED"/>
<path d="M75.0907 34.2438C76.2596 34.9951 77.7532 34.9951 78.8572 34.2438V42.8213C77.6233 42.2578 76.3895 42.07 75.0907 42.9465V34.2438Z" fill="#FFEDED"/>
<path d="M42.7511 34.369C44.5045 34.9325 44.5045 34.9325 46.5825 34.369V42.8213C45.2838 42.1326 44.0499 42.07 42.7511 42.8213V34.369Z" fill="#FFEDED"/>
<path d="M36.8416 42.8839C35.6727 42.07 34.1142 42.07 32.9453 42.8839V34.2438C34.1142 34.9951 35.6078 34.9951 36.8416 34.2438V42.8839Z" fill="#FFEDED"/>
<path d="M91.2604 44.0109C92.4293 44.7622 93.9879 44.8249 95.1568 44.0735C95.1568 46.2023 95.2217 48.2058 95.1568 50.1467C95.0919 51.1485 94.2476 51.8372 93.2086 51.8372C92.1696 51.8372 91.2604 51.0232 91.2604 50.0215C91.1955 48.0806 91.2604 46.0771 91.2604 44.0109Z" fill="#FFEDED"/>
<path d="M127.951 30.1741C127.951 30.4872 128.016 30.675 128.016 30.8002V35.809C126.717 35.9342 125.354 35.7464 124.12 36.4351V29.548C125.289 30.362 126.588 30.0489 127.951 30.1741Z" fill="#FFEDED"/>
</svg>
